<svg
    xmlns="http://www.w3.org/2000/svg" viewBox="3.723 101.175 276.596 335.475" overflow="visible">
    <g id="Master/Pose/Sitting" stroke="none" stroke-width="1" fill="none" fill-rule="evenodd">
        <g id="Head/Front" transform="translate(38.000000, 73.000000) scale(1 1)">
            <g id="Head/Front/Short Beard" stroke="none" stroke-width="1" fill="none" fill-rule="evenodd">
                <g id="Head" transform="translate(54.000000, 31.000000)" fill="#d4a181">
                    <path d="M38.1433414,9.13393292 C43.9381521,19.9350547 43.249578,47.3329958 35.7603014,49.2634576 C32.773664,50.0333035 26.4113241,48.1475566 19.935865,44.2446031 L24,73 L0,73 L8.26160177,34.4893378 C3.65406109,29.0807313 0.535660132,22.452516 1.05677633,15.0254539 C2.55833022,-6.37502057 32.3485306,-1.66718886 38.1433414,9.13393292 Z" id="SKIN"></path>
                </g>
                <path d="M79.1320584,29.6205713 C85.8659611,30.1981637 91.8790132,32.2515132 93.5831606,33.4709469 C93.5831606,39.8461712 92.3478701,41.7376815 81.7968056,41.5709519 C79.2045191,42.9399877 77.211635,45.2973585 75.1359806,48.3879237 C76.0537047,61.185356 78.4839205,67.5846937 82.4257914,67.5846937 C88.3385979,67.5846937 93.355194,63.8310443 95.9495915,63.8310443 C97.8408192,63.8310443 97.4185661,66.1977405 96.1649615,67.9524776 C95.1306973,69.4001921 90.0939174,70.7956158 90.0939174,73.0400595 C90.0939174,75.2845031 94.0733913,73.5481008 94.0733913,74.8792364 C94.0733913,77.0810973 94.7727779,81.2209894 90.9512241,81.2209894 C87.0836843,81.2209894 75.9947625,79.8115837 74.0944216,74.0714721 C72.8680535,70.367142 72.0750985,62.6912593 71.7155566,51.0438241 C71.4812891,51.0143652 71.2423222,51 71,51 C67.6862915,51 65,53.6862915 65,57 C65,58.6822183 65.6922919,60.2027431 66.807515,61.292214 C65.4191964,63.2518162 63.8632894,65.2988831 62.0803863,67.4111902 C55.3824054,63.3926741 49.4121226,50.6289713 55.9604861,39.3282783 C57.7704744,33.7922446 62.8680346,31.8352408 67.7073518,30.4622091 C71.6274481,28.8224203 75.6968791,28.6375327 79.1320584,29.6205713 Z" id="Hair" fill="#2c1b18" style="fill: rgb(85, 80, 64);"></path>
            </g>
        </g>
        <g id="Bottom/Sitting" transform="translate(-44.000000, 260.000000) scale(1 1)">
            <g id="Bottom/Sitting/Sweat Pants" stroke="none" stroke-width="1" fill="none" fill-rule="evenodd">
                <g id="Objects/Seat" transform="translate(10.000000, 42.000000) scale(1 1)">
                    <g id="Objects/Seat/Cube" stroke="none" stroke-width="1" fill="none" fill-rule="evenodd">
                        <g id="Seat" transform="translate(55.000000, 0.000000)">
                            <polygon id="Seat-Stuff" fill="#C5CFD6" points="27.6226415 0 104.877193 0 115 124 0 124"></polygon>
                            <polygon id="Seat-Stuff" fill-opacity=".1" fill="#000" points="27.6226415 0 51.3828011 0 65.6037736 124 0 124"></polygon>
                        </g>
                    </g>
                </g>
                <path d="M259.090229,37.5018287 C264.168086,50.6507477 273.032873,93.8526085 283.684593,159.107411 L271.509253,162.659849 C258.696468,134.301545 249.430392,109.608281 245.711023,96.5800564 C239.34256,74.2725728 234.497817,54.6432898 233.273327,47.3127766 C230.353374,29.8322277 255.735275,28.8143004 259.090229,37.5018287 Z M220.678573,74.1595557 C183.611563,79.4942994 131.062816,85.0032894 126.565792,85.6215241 C120.26302,86.4880065 115.500245,76.5838567 122.888346,73.6635414 C134.644063,69.0168268 175.811956,54.4748802 195.66723,50.3612296 C201.37284,49.1791314 206.902884,48.0808288 212.102095,47.0882686 C227.555991,44.1380286 235.56256,72.0174283 220.678573,74.1595557 Z" id="SKIN" fill="#d4a181"></path>
                <path d="M165.562186,0 C227.079876,15.6757222 258.515366,25.7216696 259.868655,30.1378423 C259.883714,30.1869846 259.897479,30.2361936 259.909948,30.2854692 C259.94163,30.3238462 259.971064,30.3634124 260,30.4032083 C272.191506,47.1700257 279.49295,129.026966 281.889416,135.156136 L258.52773,138.641377 C249.591265,105.503295 221,82.4181007 221.759487,42.7290106 C221.55445,41.5650096 221.502612,40.4611405 221.58707,39.4168872 L158,7.04671741 L158,0 L165.562186,0 Z" id="Leg-Back" fill="#191847" style="fill: rgb(21, 102, 138);"></path>
                <path d="M168.941763,-4.97379915e-14 C177.854593,2.56031807 224.174037,21.9848377 248.206622,32.316337 C264.112045,39.1540062 259.098892,63.8027037 250.091931,70.2187883 C250.042683,70.6119747 249.880506,70.8801196 249.591265,71 C201.136867,91.0826527 162.804991,80.5453361 150,83.9121674 L144.07712,65.2284164 L163.282146,58.6402703 C157.464468,57.475702 152.107008,56.4363434 147.522705,55.6322592 C117.90929,50.4380832 109.273766,34.5862504 114.379549,-4.97379915e-14 L168.941763,-4.97379915e-14 Z" id="Leg-Front" fill="#393f82" style="fill: rgb(24, 112, 152);"></path>
                <g id="Left" transform="translate(135.201565, 97.046949) rotate(64.000000) translate(-135.201565, -97.046949) translate(106.201565, 86.546949)" fill="#E4E4E4">
                    <path d="M1.67813181,6.40192425 C0.559377268,9.38841089 0,11.6229931 0,13.1056708 C0,14.908957 0.300414205,17.5404001 0.901242614,21 C2.99318117,21 21.7937852,21 57.3030548,21 C58.768738,16.1545073 57.9226607,13.5385816 54.7648228,13.1522232 C51.606985,12.7658647 48.9837155,12.4170139 46.8950143,12.1056708 L20.6799926,0.41888346 C20.1755635,0.194006431 19.584344,0.4206282 19.359467,0.925057349 C19.35562,0.933686736 19.3518954,0.94237021 19.3482945,0.951105154 L17.6632131,5.03869504 L17.6632131,5.03869504 C14.7398812,6.40265216 12.3643706,7.08463071 10.5366811,7.08463071 C9.05172687,7.08463071 7.00099246,6.48490544 4.38447792,5.28545491 L4.38448339,5.28544297 C3.38038273,4.82514778 2.19325534,5.26598921 1.73296014,6.27008987 C1.71312074,6.31336808 1.69483298,6.35734088 1.67813181,6.40192425 Z" id="shoe"></path>
                </g>
                <g id="Right" transform="translate(264.000000, 151.000000)" fill="#E4E4E4">
                    <path d="M1.67813181,6.40192425 C0.559377268,9.38841089 0,11.6229931 0,13.1056708 C0,14.908957 0.300414205,17.5404001 0.901242614,21 C2.99318117,21 21.7937852,21 57.3030548,21 C58.768738,16.1545073 57.9226607,13.5385816 54.7648228,13.1522232 C51.606985,12.7658647 48.9837155,12.4170139 46.8950143,12.1056708 L20.6799926,0.41888346 C20.1755635,0.194006431 19.584344,0.4206282 19.359467,0.925057349 C19.35562,0.933686736 19.3518954,0.94237021 19.3482945,0.951105155 L17.6632131,5.03869504 L17.6632131,5.03869504 C14.7398812,6.40265216 12.3643706,7.08463071 10.5366811,7.08463071 C9.05172687,7.08463071 7.00099246,6.48490544 4.38447792,5.28545491 L4.38448339,5.28544297 C3.38038273,4.82514778 2.19325534,5.26598921 1.73296014,6.27008987 C1.71312074,6.31336808 1.69483298,6.35734088 1.67813181,6.40192425 Z" id="shoe"></path>
                </g>
            </g>
        </g>
        <g id="Body" transform="translate(-22.000000, 155.000000) scale(1 1)">
            <g id="Body/Hoodie" stroke="none" stroke-width="1" fill="none" fill-rule="evenodd">
                <path d="M68.3079281,93.0198914 L89.2053198,93.1020711 C76.3021447,134.755739 69.3363474,156.856914 68.3079281,159.405597 C65.9939846,165.140133 70.8906002,173.873732 72.9845874,178.567103 C66.1645409,181.61887 66.8912241,170.316929 58.2879189,174.319492 C50.4352209,177.972846 44.4616931,184.59248 35.3890352,178.994371 C34.2736052,178.306117 33.0512757,175.714714 36.0045784,173.68967 C43.3623323,168.644547 53.9653015,159.814672 55.3979297,156.908251 C57.3515741,152.944826 61.6549068,131.648706 68.3079281,93.0198914 L68.3079281,93.0198914 Z M190.781205,92.2114854 L222.679476,115.635084 C231.330944,117.969562 238.558965,120.874047 244.363541,124.34854 C245.734683,125.597945 247.391836,128.128197 241.70538,127.690906 C236.018925,127.253615 230.01796,127.049392 229.233339,128.988954 C228.448719,130.928516 231.889854,133.24802 230.303794,135.864997 C229.246421,137.609648 224.250967,133.234999 215.31743,122.74105 L183.729774,109.642447 L190.781205,92.2114854 Z" id="SKIN" fill="#d4a181"></path>
                <path d="M122.731734,9.58031077 L131.216685,7.34914009 C165.5935,32.1628362 183.361709,84.0563407 224.996623,108.72736 L216.58973,121.240539 C147.889238,118.771641 125.383314,55.5469019 122.731734,9.58031077 Z" id="Coat-Back" fill="#c5cfd6" transform="translate(173.864178, 64.294840) rotate(5.000000) translate(-173.864178, -64.294840)" style="fill: rgb(157, 153, 153);"></path>
                <path d="M90,114 C124.671756,114 150.175573,114 166.511451,114 C170.007634,114 169.348845,108.951637 168.84345,106.404206 C163.010588,77.0037663 140.241304,45.3115155 140.241304,3.4607303 L118.1718,0 C99.917485,29.3584068 93.6048263,65.5045499 90,114 Z" id="Shirt" fill="#C7D1D9" style="fill: rgb(255, 255, 255);"></path>
                <path d="M116.510031,-7.10542736e-15 C117.255457,-6.66133815e-15 117.93832,0.0466286213 118.558619,0.139885864 L125.471587,0.534739944 C145.293986,67.7151944 150.760885,112.536948 141.872285,135 L141.872285,135 L81.6511486,135.001552 C78.0833907,143.320741 74.6693386,150.320224 71.4089926,156 L71.4089926,156 L55,156 C53.4556773,106.066899 65.3273884,63.686084 90.6151334,28.8575562 C87.4099906,27.9369844 84.8714148,25.7879767 83,22.4111902 C74.933557,7.85607578 77.8467271,-0.157592785 86.4671964,-2.7917309 C95.0876658,-5.42586901 102.775319,-2.04281037e-14 116.510031,-7.10542736e-15 Z" id="Coat-Front" fill="#f2f2f2" style="fill: rgb(175, 172, 172);"></path>
                <path d="M104,135 L81.6515228,135.000679 C85.8135041,125.295819 90.1846546,113.79505 94.7649742,100.498371 C96.6589721,116.343356 99.7372842,127.844605 104,135 Z" id="Shade" fill-opacity=".1" fill="#000"></path>
            </g>
        </g>
    </g>
</svg>